<svg xmlns="http://www.w3.org/2000/svg" width="344" height="14" viewBox="0 0 344 14" fill="none">
<path fill-rule="evenodd" clip-rule="evenodd" d="M16.0166 3.78981C8.22655 4.17672 3.58572 4.52489 2.83986 4.9118C1.01665 5.763 4.66296 6.18874 16.1824 6.22744C16.2652 6.22744 315.355 3.05472 315.438 3.05472C328.947 2.78389 330.024 2.43575 330.024 1.77801C330.024 0.926812 326.378 0.3463 318.587 0.0754657C308.311 -0.350132 73.6136 1.04277 16.0166 3.78981ZM320.494 5.72434C316.847 5.80172 79.4978 8.35527 73.5309 8.58742C0.436579 11.1023 -5.19881 11.4893 2.67416 13.3465C6.48633 14.2364 13.6963 14.2363 44.9396 13.2303C120.271 10.8702 334.748 10.5995 342.289 9.32269C345.77 8.70364 346.267 5.29875 320.494 5.72434Z" fill="#FFA63A"/>
</svg>