<svg width="687" height="14" viewBox="0 0 687 14" fill="none" xmlns="http://www.w3.org/2000/svg">
<path fill-rule="evenodd" clip-rule="evenodd" d="M31.9867 3.78981C16.4292 4.17672 7.16102 4.52489 5.67147 4.9118C2.03034 5.763 9.31236 6.18874 32.3177 6.22744C32.4832 6.22744 629.794 3.05472 629.959 3.05472C656.937 2.78389 659.089 2.43575 659.089 1.77801C659.089 0.926812 651.806 0.3463 636.249 0.0754657C615.726 -0.350132 147.013 1.04277 31.9867 3.78981ZM640.055 5.72434C632.773 5.80172 158.764 8.35527 146.848 8.58742C0.871888 11.1023 -10.3825 11.4893 5.34054 13.3465C12.9538 14.2364 27.3528 14.2363 89.7485 13.2303C240.193 10.8702 668.522 10.5995 683.583 9.32269C690.534 8.70364 691.528 5.29875 640.055 5.72434Z" fill="#FFD600"/>
</svg>
