<?xml version="1.0" encoding="utf-8"?>
<!-- Generator: Adobe Illustrator 24.2.1, SVG Export Plug-In . SVG Version: 6.00 Build 0)  -->
<svg version="1.1" id="Layer_1" xmlns="http://www.w3.org/2000/svg" xmlns:xlink="http://www.w3.org/1999/xlink" x="0px" y="0px"
	 viewBox="0 0 302 215.7" style="enable-background:new 0 0 302 215.7;" xml:space="preserve">
<style type="text/css">
	.st0{fill:none;stroke:#000000;stroke-width:12.7788;}
	.st1{fill-rule:evenodd;clip-rule:evenodd;}
</style>
<path class="st0" d="M126.5,206.3v-50.5"/>
<path class="st1" d="M28.8,207.9C15,207.9,3,196.2,3,181.8C3,167.3,15,156,28.8,156c5.7,0,10.7,1.4,15.1,4.5v-4h12.6v50.2H43.9v-3.1
	C40.2,206.4,34.5,207.9,28.8,207.9z M114.5,206.7h-12.6v-3.1c-4.4,2.8-9.5,4.3-15.1,4.3c-14.5,0-25.8-11.6-25.8-26.1
	c0-14.4,11.3-25.8,25.8-25.8c5.7,0,10.7,1.4,15.1,4.5v-21.2h12.6V206.7z M297.1,172.3h-12.6c0-2.5-0.6-6.8-8.2-6.8
	c-5,0-8.2,0.8-8.8,4.5c0,5.1,10.7,4.8,18.9,6.8c7.6,2,12.6,6.8,12.6,13.6c0,12.5-10.1,17.3-22.7,17.3c-13.8,0-22-7.1-22.7-17.3h13.2
	c0,3.4,1.9,7.9,10.1,8.2c5.7,0,8.8-3.4,8.8-6c-0.6-4-5.7-4.2-10.7-5.1c-5.7-0.8-10.1-2-13.2-3.4c-4.4-2.3-6.9-7.1-6.9-12.2
	c0-9.1,7.6-16.2,20.8-16.2C288.3,155.9,296.5,162.4,297.1,172.3L297.1,172.3z M15,181.8c0,7.9,6.9,14.4,14.5,14.4
	c8.2,0,14.5-6.5,14.5-14.4c0-7.6-6.3-14.4-14.5-14.4C21.9,167.3,15,174.1,15,181.8z M72.9,181.8c0,7.9,6.3,14.4,14.5,14.4
	c7.5,0,14.5-6.5,14.5-14.4c0-7.6-7-14.4-14.5-14.4C79.2,167.3,72.9,174.1,72.9,181.8z M178.7,138.8h-46v12.5h-12.6v-12.5L86.2,79
	l44.1-24.9L178.7,138.8z M101.9,138.8H43.3l-8.2-14.8l43.4-25.2L101.9,138.8L101.9,138.8z M255.6,138.8H197L136.5,33.4L180,7.9
	L255.6,138.8L255.6,138.8z M290.8,151.8c-3.2,0-6.3-2.8-6.3-6.2c0-3.4,3.1-6.2,6.3-6.2c3.8,0,6.3,2.8,6.3,6.2
	C297.1,148.9,294.6,151.8,290.8,151.8 M290.8,140.2c-3.2,0-5,2.5-5,5.4s1.9,5.4,5,5.4c3.1,0,5-2.6,5-5.4S293.9,140.2,290.8,140.2
	 M292.1,149l-1.3-2.8h-1.3v2.8h-1v-6.8h2.8c0.6,0,1.9,0.9,1.9,2c0,1.1-0.6,1.7-1.3,2l1.3,2.8 M290.8,143h-1.3v2.3h1.3
	c1.3,0,1.3-0.3,1.3-1.1C292.1,143.6,292.1,143,290.8,143 M207.6,181.9c0,7.9,6.3,14.4,14.5,14.4c7.6,0,14.5-6.5,14.5-14.4
	c0-7.6-6.9-14.4-14.5-14.4C213.9,167.4,207.6,174.2,207.6,181.9 M221.5,208c-14.5,0-25.8-11.6-25.8-26.1c0-14.4,11.3-25.8,25.8-25.8
	c5.7,0,10.7,1.4,15.1,4.5v-4h12v50.2h-12v-3.1C232.2,206.5,227.1,208,221.5,208"/>
<path class="st1" d="M149.7,181.9c0,7.9,6.9,14.4,14.5,14.4c8.2,0,14.5-6.5,14.5-14.4c0-7.6-6.3-14.4-14.5-14.4
	C156.7,167.4,149.7,174.2,149.7,181.9 M178.7,139.4h12.6v67.4h-12.6v-3.1c-3.8,2.8-8.8,4.3-14.5,4.3c-14.5,0-26.4-11.6-26.4-26.1
	c0-14.4,12-25.8,26.4-25.8c5.7,0,10.7,1.4,14.5,4.5L178.7,139.4L178.7,139.4z"/>
</svg>
