<?xml version="1.0" encoding="utf-8"?>
<!-- Generator: Adobe Illustrator 24.2.1, SVG Export Plug-In . SVG Version: 6.00 Build 0)  -->
<svg version="1.1" id="Layer_1" xmlns="http://www.w3.org/2000/svg" xmlns:xlink="http://www.w3.org/1999/xlink" x="0px" y="0px"
	 viewBox="0 0 302.2 215.9" style="enable-background:new 0 0 302.2 215.9;" xml:space="preserve">
<style type="text/css">
	.st0{fill-rule:evenodd;clip-rule:evenodd;fill:#4F2400;}
	.st1{fill-rule:evenodd;clip-rule:evenodd;fill:#D28816;}
	.st2{fill-rule:evenodd;clip-rule:evenodd;fill:#FFFFFF;}
	.st3{fill-rule:evenodd;clip-rule:evenodd;fill:#F15D22;}
</style>
<path class="st0" d="M49.5,75c0,0-5.6-11.6,6.9-20.6s34.3-22.1,62.5-31.8c31.3-10.7,59.1-15.5,80-14.4c16.4,0.9,17.7,13.3,17.7,13.3
	s65.6,1.1,78.1,38s-27.8,70.7-42,81.7c0,0,4.1,11.6-4.7,18.7c-8.8,7.1-38,25.6-66,34c-28,8.4-45.3,14.2-77,14.2
	c-16.8,0-19.6-12-19.6-14c0,0-70.2-0.6-79.4-42.1C-2.7,112.6,47.6,76.3,49.5,75"/>
<path class="st1" d="M52,75.6c0,0-5.5-11.4,6.7-20.2c12.2-8.8,33.5-21.7,61-31.2c30.5-10.5,57.7-15.2,78.1-14.1
	c16,0.8,17.3,13.1,17.3,13.1s64,1.1,76.2,37.3s-27.2,69.3-41,80c0,0,4,11.4-4.6,18.3c-8.6,6.9-37,25.1-64.4,33.3
	S137.1,206,106.1,206C89.7,206,87,194.2,87,192.3c0,0-68.6-0.6-77.5-41.3C1.1,112.5,50.1,76.9,52,75.6"/>
<path class="st2" d="M280.9,65.7c11.9,36.6-36.5,85.1-108.1,108.4c-71.6,23.3-139.3,12.5-151.2-24C9.7,113.5,58.1,64.9,129.7,41.6
	C201.3,18.3,269,29.1,280.9,65.7"/>
<path class="st0" d="M129.3,40.6C57,64.1,8.2,113.3,20.2,150.4c12.1,37.1,80.5,48.2,152.8,24.7c72.3-23.5,121.1-72.7,109.1-109.8
	C270,28.1,201.6,17.1,129.3,40.6L129.3,40.6z M278,66.9c11.6,35.6-35.6,82.9-105.5,105.6c-69.8,22.7-135.8,12.2-147.4-23.4
	C13.5,113.5,60.7,66.2,130.6,43.5C200.4,20.8,266.4,31.2,278,66.9"/>
<path class="st3" d="M137.9,97.6c0.3,0.2,0.8-0.2,0.4-0.9c-0.4-0.6-1.1-0.8-2.3-0.8s-5.8,2.1-5.8,5.6s3.5,3.9,5.4,3.3
	s1.4,0.6,0.7,0.9s-9.4,5-9.8,13.4c-0.2,5.1,4.7,5.2,6.5,5.2c3.6,0.1,10-2.8,9.9-9.9c-0.1-3.6-2.7-3.6-3.4-3.6
	c-0.8,0-8.5,1.6-7.4,7.2c0,0,0.2,0.1,0.3-0.7c0.1-0.8,1.3-4,4.7-4c1.9,0,2.4,1.2,2.4,2.6s-0.8,5.7-6,5.7c-1.8,0-4.4-1.2-4.3-4.5
	s4.6-10,11.8-10.6c7-0.6,7.5,5.2,7.5,7.1c0,7.7-7.2,17.4-21,18.2c-6.9,0.4-10.1-5.4-9.5-10.5c0.5-4,4.9-10.2,8.1-11.8
	c1.2-0.6,0.8-1,0.3-1.1c-2.2-0.2-2.4-3.7-2.3-5.3c0.3-3.9,2.4-6,5.4-7.8c3-1.7,5.5-2.1,6.9-2.1c0.9,0,4.2,0,4.4,3.3
	c0.1,2.5-2.1,6.4-5.4,6.5c-1,0-2.4-1.1-2.4-2.3C133.2,98.2,135.7,96.5,137.9,97.6"/>
<path class="st0" d="M137.3,91.4c0,0,5.7,0.2,6.4,4.6s-3.5,8.6-3.5,8.6s9.2-2.7,11,7.6c1.8,10.3-7.7,16.7-7.7,16.7l3.1,15.6
	c1.1,5.5,6.8,3.5,6.8,3.5l12.5-4.4c-3.5-1.1-2-5.3-2-5.3s14.3-38.8,15.1-41.2s2,0.7,2,0.7l5.2,32.5c0.9,6.4,7.2,5,7.2,5l14.5-5
	c-4.6-1.3-1.5-8.1-1.5-8.1S230,50.3,231,46.4c1.3-5.3-4.9-5.3-4.9-5.3l-8.8,3.1c3.5,0.9,2.2,5.9,2.2,5.9s-16,47.4-16.7,48.9
	s-1.5-1.3-1.5-1.3s-5.7-34.9-7-39.9c-1.3-5-6.6-4.2-6.6-4.2l-11,3.5c2.6,0.7,1.8,5.9,1.8,5.9s-15.4,47.1-16.1,48.2
	c-0.8,1.1-1.6,0-1.6,0s-5.9-34.9-7.2-40.6c-1.3-5.7-6.1-3.9-6.1-3.9l-16.4,5.5C136.4,74.9,137.3,91.4,137.3,91.4L137.3,91.4z
	 M90.8,132.2l15.8-5l-4.2-28.1L90.8,132.2z M92.6,84.8L113,78c0,0,3.7-1.8,5.3,3.4s4.2,19.4,4.2,19.4s-1.1,7.2,1.1,8.8
	c0,0-9.9,7.7-7.7,16.2s12.3,9,12.3,9l1.8,11.2c0,0,1.5,7,5.5,7.9l-16.2,5c0,0-6.6,3.1-7.7-3.5s-3.1-18.6-3.1-18.6L87.3,144
	l-6.6,19.7c0,0-1.8,5.9,2,7l-6.8,2.4c0,0-7.9,2.6-6.1-6.4L95,92.9C95,92.9,96.7,87.4,92.6,84.8"/>
<path class="st0" d="M232.1,41.4c-2.4-2-5.6-2.5-6-2.5c-0.2,0-0.5,0-0.7,0.1l-8.8,3.1c-0.9,0.3-1.4,1.1-1.4,2c0,0.9,0.7,1.7,1.6,1.9
	c0.3,0.1,0.5,0.2,0.6,0.4c0.5,0.8,0.3,2.3,0.1,3l-0.4,1.2l-0.3,0.9c-12.6-4.6-29.7-6.7-52.4-5c-54.1,4-109.3,40.9-116.2,47
	c0,0,30.9-34.3,93.3-50.8c60.4-15.9,123.1-6.1,131.6,25.4c10,37.3-34.6,69.1-74.3,83.1c-10.6,3.8-24.6,7.7-24.6,7.7
	s29.7-10.5,45-24.6c15.4-14.1,31.6-32.4,26.5-53.5c-2.1-8.7-6.7-16.4-15.8-22.6C229.9,58.1,235.9,44.5,232.1,41.4"/>
<path class="st3" d="M137.9,170.1c-24.4,1.8-41.2-0.7-54.6-5.9l-0.3,0.8c-0.1,0.3-1.3,3.1,0.2,3.6c0.9,0.3,1.4,1,1.5,1.9
	c0,0.9-0.5,1.7-1.4,2l-6.8,2.4l0,0c-0.1,0-1.4,0.5-3,0.5c-2,0-3.6-0.7-4.7-2c-1.3-1.6-1.7-4-1.1-7.2l0.1-0.3l3-8.7
	c-7.7-5.9-12.2-13.4-14.1-21.4c-5.1-21.1,10.2-38.5,25.6-52.6c15.4-14.1,46-25.5,46-25.5s-14.2,3.6-24.6,7.7
	c-43,16.8-84.5,44.8-74.6,82.1c8.4,31.5,71.4,42.3,131.8,26.4c62.3-16.4,93.3-50.8,93.3-50.8C247.2,129.2,192,166.1,137.9,170.1"/>
<g>
	<path class="st0" d="M80.2,53.9L80.2,53.9c0.3,0.6,0.8,0.6,2.1-0.1l0.9-0.5c1-0.5,1.4-0.9,1.1-1.3l-0.2-0.3
		c-0.2-0.4-0.7-0.3-1.7,0.2l-2.9,1.3c-2.2,1-3.4,0.8-4-0.4l-0.2-0.5c-0.4-0.7-0.2-1.5,0.3-2.3c0.6-0.8,1.5-1.3,2.9-2.1l2.1-1.1
		c2.6-1.4,4.3-1.4,4.9-0.3l0.3,0.5l-3.3,1.8l0-0.1c-0.2-0.5-0.6-0.4-1.6,0L80,49.3c-1,0.5-1.4,0.9-1.2,1.3l0.2,0.3
		c0.2,0.4,0.7,0.2,1.7-0.2l2.6-1.2c2.3-1,3.7-1,4.2,0.2l0.4,0.7c0.6,1.3-0.4,2.9-2.7,4.1l-2.8,1.5c-3,1.6-4.6,1.7-5.3,0.3l-0.3-0.5
		L80.2,53.9"/>
	<path class="st0" d="M87.3,43.5l3.5-1.7l3.7,7.9L91,51.4L87.3,43.5"/>
	<path class="st0" d="M93.9,40.3l5.3-2.2l6.6,4.3l-2.5-6l3.4-1.4L110,43l-5.3,2.2l-6.6-4.3l2.5,6.1l-3.4,1.4L93.9,40.3z"/>
	<path class="st0" d="M122.5,35c0.8,2.2-0.4,3.6-3.9,4.9l-1.2,0.5c-3.9,1.4-5.5,1-6.4-1.5l-0.6-1.7c-0.9-2.5,0.1-3.8,4-5.3l1-0.4
		c3.8-1.4,5.4-1.1,6.1,1.1l0.1,0.2l-3.6,1.3l-0.1-0.1c-0.3-0.8-0.9-0.8-2.3-0.3c-1.8,0.7-1.8,1.1-1.4,2.3l0.5,1.4
		c0.4,1.2,0.7,1.5,2.5,0.9c1.4-0.5,1.8-1,1.5-1.9l-0.1-0.2l3.7-1.4L122.5,35"/>
	<path class="st0" d="M123.1,28.9l10.3-3.3l0.6,1.9l-6.6,2.1l0.4,1.5l6.4-2.1l0.5,1.6l-6.4,2.1l0.5,1.6l6.8-2.2l0.6,1.9l-10.4,3.4
		L123.1,28.9z"/>
	<path class="st0" d="M146.1,21.9l4.1-1.1l2.1,8.5l-3.5,0.9l-1.6-6.3l-1.4,1.3l-1.4-1.7L146.1,21.9z"/>
	<path class="st0" d="M156.6,21c-1.3,0.3-1.6,0.5-1.4,1l0.1,0.6c0.1,0.6,0.4,0.6,1.7,0.3l0.8-0.2c1.3-0.3,1.6-0.4,1.4-1l-0.1-0.6
		c-0.1-0.6-0.5-0.6-1.7-0.3L156.6,21L156.6,21z M156.3,25.9l0,0.1c0.1,0.5,0.4,0.6,1.4,0.3l0.9-0.2c1.2-0.3,1.4-0.4,1.3-1.1
		l-0.3-1.5c-0.5,0.5-1.2,0.8-2.2,1.1l-1.4,0.3c-2.6,0.6-3.9,0.1-4.3-1.4l-0.2-0.8c-0.3-1.5,1.1-2.6,4.2-3.4l1.7-0.4
		c3.6-0.8,4.9-0.1,5.4,2.4l0.4,1.8c0.5,2.5-0.3,3.8-3.9,4.6l-1.7,0.4c-2.9,0.7-4.5,0.4-4.8-0.9l-0.1-0.5L156.3,25.9"/>
	<path class="st0" d="M165.2,17.5l4.2-0.8l1.6,8.6l-3.5,0.7l-1.2-6.4l-1.3,1.1l-1.5-1.7L165.2,17.5"/>
	<path class="st0" d="M176,17.3c-1.3,0.2-1.6,0.4-1.5,0.9l0.1,0.6c0.1,0.6,0.4,0.6,1.7,0.4l0.8-0.1c1.3-0.2,1.6-0.3,1.5-0.9
		l-0.1-0.6c-0.1-0.6-0.5-0.6-1.7-0.4L176,17.3L176,17.3z M175.4,22.2l0,0.1c0.1,0.5,0.4,0.6,1.4,0.4l0.9-0.2c1.2-0.2,1.4-0.3,1.3-1
		l-0.2-1.5c-0.5,0.5-1.2,0.8-2.2,0.9l-1.4,0.2c-2.7,0.4-3.9-0.1-4.2-1.7l-0.1-0.8c-0.2-1.5,1.2-2.6,4.4-3.1l1.7-0.3
		c3.6-0.6,4.9,0.2,5.2,2.8l0.3,1.8c0.4,2.6-0.6,3.7-4.2,4.3l-1.7,0.3c-2.9,0.5-4.5,0.1-4.7-1.2l-0.1-0.5L175.4,22.2"/>
</g>
<g>
	<path class="st0" d="M122.5,196.5c1.3-0.2,1.7-0.5,1.6-1.2l-0.1-0.3c-0.1-0.8-0.6-0.9-1.9-0.7l-2.2,0.3l0.4,2.3L122.5,196.5z
		 M115.7,193.1l6-0.9c4.2-0.6,6-0.4,6.4,1.6l0.1,0.7c0.2,1.2-0.7,2-2.6,2.5c2-0.1,3,0.3,3.2,1.5l0.3,1.8l-4.1,0.6l-0.3-1.6
		c-0.1-0.8-0.6-0.9-1.9-0.7l-2.2,0.3l0.4,2.6l-4,0.6L115.7,193.1"/>
	<path class="st0" d="M133.9,195.5c0.3,1.3,0.6,1.7,2.6,1.3l0.7-0.1c2-0.4,2.1-0.8,1.9-2.2l-0.3-1.5c-0.3-1.3-0.6-1.7-2.6-1.3
		l-0.7,0.1c-2,0.4-2.1,0.8-1.8,2.2L133.9,195.5z M134.4,189.9l1.9-0.4c4.2-0.9,5.8-0.2,6.4,2.5l0.4,1.8c0.6,2.6-0.6,3.9-4.9,4.7
		l-1.9,0.4c-4.2,0.9-5.8,0.2-6.4-2.5l-0.4-1.8C129,192,130.2,190.8,134.4,189.9"/>
	<path class="st0" d="M148.4,192.3c0.4,1.3,0.7,1.6,2.6,1.1l0.7-0.2c2-0.5,2.1-0.9,1.7-2.2l-0.4-1.4c-0.4-1.3-0.7-1.6-2.7-1.2
		l-0.7,0.2c-2,0.5-2.1,0.9-1.7,2.3L148.4,192.3z M148.6,186.7l1.9-0.5c4.2-1,5.8-0.4,6.5,2.2l0.5,1.8c0.7,2.6-0.4,3.9-4.6,5
		l-1.9,0.5c-4.2,1-5.8,0.4-6.5-2.2l-0.5-1.8C143.3,189.1,144.4,187.8,148.6,186.7"/>
	<path class="st0" d="M161.2,185.6l-3.7,1.1l-0.6-1.9l11.2-3.3l0.6,1.9l-3.7,1.1l2.1,6.7l-3.9,1.1L161.2,185.6"/>
	<path class="st0" d="M186.8,182.6l2.8-1c0.8-0.3,1.1-0.6,1-1.1l-0.1-0.3c-0.2-0.4-0.6-0.5-1.4-0.2l-2.8,1L186.8,182.6z
		 M185.5,179.4l2.7-1c0.8-0.3,1.1-0.6,0.9-1l-0.1-0.3c-0.2-0.4-0.6-0.5-1.3-0.2l-2.7,1L185.5,179.4z M187,175
		c3.3-1.2,4.9-1.3,5.5,0.2l0.2,0.5c0.4,1-0.2,1.7-1.7,2.4c1.8-0.4,2.9-0.1,3.3,0.7l0.2,0.5c0.7,1.7-0.7,2.7-4.2,4l-6.5,2.4l-3.3-8.4
		L187,175"/>
	<path class="st0" d="M193.6,172.5l10.3-4.3l0.8,1.8l-6.6,2.8l0.6,1.4l6.5-2.7l0.7,1.6l-6.5,2.7l0.7,1.6l6.8-2.8l0.8,1.8l-10.5,4.4
		L193.6,172.5"/>
	<path class="st0" d="M205.7,167.4l10.1-4.8l0.9,1.8l-6.5,3.1l0.7,1.4l6.3-3l0.8,1.6l-6.3,3l0.8,1.5l6.7-3.1l0.9,1.8l-10.3,4.8
		L205.7,167.4"/>
	<path class="st0" d="M225.3,162.7c1.1-0.6,1.4-1,1-1.7l-0.2-0.3c-0.4-0.7-0.9-0.7-2-0.1l-2,1.1l1.2,2L225.3,162.7L225.3,162.7z
		 M217.6,161.8l5.3-2.9c3.7-2,5.5-2.4,6.5-0.7l0.4,0.6c0.6,1.1,0.1,2.1-1.5,3.2c1.9-0.8,2.9-0.7,3.5,0.3l0.9,1.6l-3.6,1.9l-0.8-1.4
		c-0.4-0.7-0.9-0.7-2-0.1l-1.9,1.1l1.3,2.3l-3.5,1.9L217.6,161.8"/>
</g>
<g>
	<path class="st1" d="M94.8,128.5l4.9-1.6l3.4-9.7l-1.3-8.7L94.8,128.5z"/>
	<path class="st1" d="M93,147.7l14.3-4.9l-0.6-3.5l-17.1,5.9l-0.1,0.3l-6.6,19.7l0,0.1c-0.1,0.2-0.3,1.1-0.4,2.2
		c0.1,0.5,0.4,1,0.8,1.1c0.9,0.3,1.4,1,1.5,1.9c0,0.9-0.5,1.7-1.4,2l-6.8,2.4l0,0c-0.1,0-1.4,0.5-3,0.5c-0.3,0-0.6,0-0.9-0.1
		l0.3,0.4c1.1,1.3,2.7,2,4.7,2c1.6,0,2.9-0.4,3-0.5l0,0l6.8-2.4c0.8-0.3,1.4-1.1,1.4-2c0-0.9-0.6-1.7-1.5-1.9
		c-1.5-0.5-0.7-4.2-0.6-4.4L93,147.7"/>
	<path class="st1" d="M139.9,153.9c-2-0.4-3.5-4.4-3.9-6.6l-1.7-10.5c0,0.1,3-0.6,4-0.9c0.2-0.1,3.9-1.8,3.9-1.6
		c0,0.1-0.1-3.4-0.5-4.4c0,0-3,2.9-11.6,4.5l1.7,10.9c0.4,1.9,1.9,5.8,3.9,6.3c0.9,0.2,1.6,1,1.6,1.9c0,0.9-0.6,1.8-1.4,2l-16.1,5
		c-0.5,0.2-2.1,0.8-4,0.8c-0.3,0-0.6,0-0.9-0.1c1.1,1.5,2.9,2.4,5,2.4c1.8,0,3.5-0.6,4-0.8l16.1-5c0.9-0.3,1.5-1.1,1.4-2
		C141.5,154.9,140.8,154.1,139.9,153.9"/>
	<path class="st1" d="M170.5,143.7c-0.5-0.2-0.7-0.4-0.7-0.5c-0.3-0.6-0.1-1.7,0.1-2.1c0.1-0.3,6.7-18.2,11.1-30.3l-1.3-8.3
		c-3.8,10.4-13.5,36.9-13.7,37.2c0,0.1-0.2,0.6-0.3,1.2c0.1,0.1,0.2,0.3,0.7,0.5c0.8,0.3,1.4,1,1.4,1.9c0,0.9-0.5,1.7-1.4,2
		l-12.5,4.4c-0.1,0-1.4,0.5-2.9,0.5c-0.4,0-0.8,0-1.1-0.1c1.2,1.5,3,2.4,5.2,2.4c1.5,0,2.8-0.4,2.9-0.5l12.5-4.4
		c0.8-0.3,1.4-1.1,1.4-2C172,144.7,171.4,143.9,170.5,143.7"/>
	<path class="st1" d="M126.7,94.1c-0.1-0.6-1-6.1-2.6-11.3c-1.3-4.3-4.1-5.1-5.5-5.1c0.5,0.7,1,1.6,1.4,2.8
		c1.5,5.2,3.5,16.2,3.6,16.8"/>
	<path class="st1" d="M212.4,124.8c1-2.9,23.7-71.9,24.7-75.9c0.6-2.6-0.2-4.3-0.9-5.3c-1.1-1.4-2.8-2.1-4.1-2.3l0,0
		c0.7,0.9,1.6,2.6,1.1,5.1c0,0.4-0.2,0.8-0.4,1.5c-0.7,3-16,50.6-24.2,75.5c-0.2,0.5-0.8,1.9-1,3.7l0.1,0.2c0.1,0.2,0.3,0.5,0.9,0.6
		c0.9,0.2,1.5,1,1.5,1.9s-0.5,1.7-1.4,2l-14.5,5l-0.3,0.1c-0.1,0-0.8,0.2-1.8,0.2c-0.7,0-1.3-0.1-1.9-0.2c1.4,1.6,3.5,2.5,6,2.5
		c1,0,1.6-0.1,1.8-0.2l0.3-0.1l14.5-5c0.8-0.3,1.4-1.1,1.4-2c0-0.9-0.6-1.7-1.5-1.9c-0.6-0.2-0.7-0.4-0.9-0.6
		c-0.6-1.2,0.2-3.6,0.6-4.6L212.4,124.8"/>
	<path class="st1" d="M155.5,70c1,4.5,4.8,26.5,6.5,36.1c0.7-1.9,1.5-4.4,2.5-7.3c-1.8-10.4-4.1-23.2-4.8-26.6
		c-1-4.4-3.9-5.5-5.7-5.7C154.6,67.4,155.2,68.6,155.5,70"/>
	<path class="st1" d="M196.3,57c1.1,4.1,4.8,26.7,6.4,36c0.7-2,1.5-4.5,2.5-7.3c-1.8-10.4-4-23.4-4.8-26.4c-0.8-3-2.9-5-5.8-5.6
		C195.4,54.7,196,55.8,196.3,57"/>
</g>
</svg>
