<svg xmlns="http://www.w3.org/2000/svg" viewBox="0 0 352.8 352.81"><defs><style>.cls-1{fill:#0076c0;}</style></defs><g id="Layer_2" data-name="Layer 2"><g id="Layer_1-2" data-name="Layer 1"><path class="cls-1" d="M261.84,330.72a174.28,174.28,0,0,0,17.42-11l-205.8-.05A180.63,180.63,0,0,0,90.9,330.74Z"/><path class="cls-1" d="M238.08,341.71a177,177,0,0,1-123.41,0Z"/><path class="cls-1" d="M59.7,308.7q-6-5.29-11.45-11.07H304.56c-3.65,3.85-7.5,7.55-11.46,11.08Z"/><path class="cls-1" d="M30.48,275.56q3.89,5.7,8.2,11.09l275.4,0q4.32-5.39,8.22-11.08Z"/><path class="cls-1" d="M17.71,253.55q2.74,5.63,5.88,11.05l305.63,0c2.07-3.58,4-7.3,5.83-11Z"/><path class="cls-1" d="M176.4,0A176.5,176.5,0,0,0,12.82,242.54l327.17,0A176.49,176.49,0,0,0,176.4,0ZM52.89,231.47H24.23L47,110.24H75.69Zm78,.14H109.56a33.14,33.14,0,0,1-32.55-39l4.72-25.13,29.49-4.22-5,26.81a10,10,0,0,0-.14,1.83,11,11,0,0,0,11,11l7,0a13.22,13.22,0,0,0,13-10.56l15.45-82H181.1l-17.74,94.33A33.08,33.08,0,0,1,130.85,231.61Zm170.49-.14H272.66L283,176.26l-35.8,55.21H228.55L214.9,176.61l-10.31,54.86H175.91l22.8-121.23h28.68l18.87,75.83,49.18-75.83h28.69Z"/></g></g></svg>