<svg xmlns="http://www.w3.org/2000/svg" viewBox="0 0 127.47 129.47"><defs><style>.cls-1{fill:#007654;}.cls-2{fill:#fff;}.cls-3{fill:#231f20;}.cls-4{fill:none;}</style></defs><g id="Layer_2" data-name="Layer 2"><g id="Layer_1-2" data-name="Layer 1"><path class="cls-1" d="M1.62,64.24A62.38,62.38,0,1,1,64,126.62,62.38,62.38,0,0,1,1.62,64.24"/><path class="cls-2" d="M3.46,64.24A60.54,60.54,0,1,1,64,124.78,60.54,60.54,0,0,1,3.46,64.24"/><path class="cls-1" d="M5.43,64.24A58.57,58.57,0,1,1,64,122.81,58.57,58.57,0,0,1,5.43,64.24"/><path class="cls-2" d="M27.8,64a36.07,36.07,0,1,1,36.06,36.07A36.07,36.07,0,0,1,27.8,64"/><path class="cls-2" d="M69.57,10.83a4,4,0,0,1,1.21,3.35,4.76,4.76,0,0,1-1.59,2.43c1,.74,2,1.5,2.13,2.82a4.07,4.07,0,0,1-.84,3.42c-1.55,1.75-4,1.29-6.24,1.36l-5.89.16,0-.54L57.7,10.45l0-.29c3.88,0,8.44-1,11.89.67"/><path class="cls-2" d="M80.55,12.72a92,92,0,0,0-3.15,9.14,1.69,1.69,0,0,0,1.29,1.82,1.86,1.86,0,0,0,2,0c2-2.81,3-6.31,4.21-9.47,1.6.56,2.84,1.36,4.39,1.94-1.65,3.5-2.67,7.62-5,10.5-1.65,1.45-4.26,1.09-6.23.61-2.26-.81-4.72-2.26-5.4-4.79-.53-1.74,1.87-7.7,3.19-11.26l4.67,1.51"/><path class="cls-2" d="M44,29.39l-3.34,2.2c-1.25-.66-2-1.1-2.89-1.52l-3.71,3.12c.38.91.87,2,1.28,3L32,39.93l-.27-.58L25.91,25.43l5.35-4.6.43.27c4.2,2.56,8.51,5.58,12.76,8l-.44.29"/><path class="cls-2" d="M44.85,28.88c-1.76-4.28-3.91-9.29-5.5-13.31,4-1.62,9.86-5.61,13.46-1.9a5.55,5.55,0,0,1,1.06,3.73,6.14,6.14,0,0,1-1,2.36,62.74,62.74,0,0,0,5,4.63l-.19.06-4.56,1c-1.63-1.31-2.55-2.23-4-3.2a5.92,5.92,0,0,0-1.6.69l1.57,3.6-4.28,2.33"/><path class="cls-1" d="M65.61,13.19a1.63,1.63,0,0,1,.08,1.6c-.66.76-1.88.73-2.89.6.07-.86-.24-1.7-.18-2.58.86.12,2.36-.31,3,.38"/><path class="cls-1" d="M48.88,16.69c.25.63.27,1.66-.27,2L46.1,19.79c-.63-1.15-.89-1.94-1.32-2.87,1.16-.44,3.16-2.18,4.1-.23"/><path class="cls-1" d="M66.45,19a1.56,1.56,0,0,1-1.07,2A17.05,17.05,0,0,1,63.1,21,14.42,14.42,0,0,1,63,18.13c1.16.15,2.91-.48,3.47.84"/><path class="cls-2" d="M100.67,23.91a10.48,10.48,0,0,1,1.83,3.73c-1.07.57-1.88,1.22-2.89,1.67A5.28,5.28,0,0,0,97,25.36a3.46,3.46,0,0,0-2.66-.23A5,5,0,0,0,91.4,28a3.71,3.71,0,0,0,.76,3.42A5.14,5.14,0,0,0,96,33.19c-.67,1.1-1,1.8-1.67,2.66a8.67,8.67,0,0,1-6.24-4,7.59,7.59,0,0,1-.23-7,7.51,7.51,0,0,1,5.7-4,8.69,8.69,0,0,1,7.15,3.12"/><path class="cls-1" d="M34.81,28.17A20.49,20.49,0,0,1,32.53,30c-.61-1.45-1.19-2.74-1.82-4.34,1.45.77,2.73,1.67,4.1,2.51"/><path class="cls-2" d="M108.28,32.89c-1.17,1.16-2.71,2.15-4,3.27,2,.43,4.21.35,6.24.68.91,1.32,1.39,2.59,2.28,4.18l-7.45-.53c-1.65,2.59-3.14,5.22-4.57,7.91-.88-1.29-1.56-3-2.43-4.41,1-2,2.22-4,3.19-6-1.66,1-3.12,2.36-4.81,3.42L94.14,37.9c3.54-3,7.37-5.75,11.1-8.51l.3-.11,2.74,3.61"/><path class="cls-2" d="M24.6,32c-.68,1.39-1.56,2.34-2.18,3.67l8.67,5.71a18.73,18.73,0,0,1-2.29,3.8l-8.89-5.55a36.27,36.27,0,0,0-2.17,3.47c-1.17-.77-2-1.28-2.93-1.95C17,37.42,19.11,34,21.54,30.16L24.6,32"/><path class="cls-3" d="M49,65.86a6.79,6.79,0,0,1-.19,1.78c-1.34,2.72-3.52,5.1-3.87,8.22-1.55,1-2.82,2.71-5,2.13a5.78,5.78,0,0,0,.3,2.12c-1.75-.07-2.94,1.22-4.41,1.83-.78-.25-1-1.27-1.29-2,1.72-.58,3-2.3,4.94-2.28.23-.63-.13-1.22-.23-1.82-2.46-1.09-6.36,5.4-6.69-.23C35,75.48,36.56,73.2,39,73l.07-1.83c-2.76-.28-4.54,2.56-7.3,2.28L31.16,71c3.19.2,5.1-2.66,8.14-2.82a4.18,4.18,0,0,0,.53-2c-3.32-.43-5.6,3.25-9.12,2.13,0,0-.12-1.53-.19-2.39H49"/><path class="cls-3" d="M52.88,65.86a5.08,5.08,0,0,1-1.49,4.07c-1.82,2.15-3.67,4.86-2.36,7.75,1.4,3.19,5.78,5.68,3.88,9.66-1,2.51-3.52,4.41-3.42,7.38a6.4,6.4,0,0,1-1.9-1.07c0-3.78,5.37-6.13,2.81-10.11-.22.78-.28,1.85-.45,2.74-.89,2.3-2.79,4.15-3.5,6.54A10.42,10.42,0,0,1,43,90.38l1.38-.84a4.42,4.42,0,0,0-.92-1.36c-.89-.13-1.47.45-2.2.68a11.14,11.14,0,0,1-1.75-1.75c.45-1.29,4-.23,2.2-2.36-1.21-.76-2.43.33-3.5.84l-1.44-1.82c1.24-.76,2.48-1.83,4-1.53.38.69.41,1.7,1.14,2.06,2.61,0,4.46-2,6.46-3.58-1.39-2.07-2.53-4.94-1.29-7.45,1-2.52,3.58-4.63,3.7-7.41h2.05"/><path class="cls-3" d="M56.6,65.86a5.31,5.31,0,0,1-.87,3.61c-1.65,2.23-3.81,4.58-2.82,7.53s4.64,4.76,4.41,8.21c0,4.08-4.76,6.62-3.42,11.18l-2.36-.76c-.93-4.06,3.38-6.13,3.43-9.89.61-4.31-4.9-5.91-4.57-10.11,0-3.2,2.79-5.22,4-7.91a5,5,0,0,0,.26-1.86H56.6"/><path class="cls-3" d="M69.63,65.86a4.9,4.9,0,0,0,.55,3.08c1.64,2.6,4.54,5.37,2.73,8.74-1.9,2.79-5.07,5.5-3.8,9.13C70.51,90,73.42,93,71.85,96.92l-2.36.54c1.88-3.84-.93-7.63-2.58-11-2-4.76,4.31-7,4.41-11.4,0-2.82-3-4.41-3.65-7-1.3-1.09-2.64.43-4.19.15-1.14.23-2.89-1.57-3.57.38C59.1,71.49,55.4,73.6,57,77c1.55,3,5.27,5.22,4,9.12-1.12,3.65-4.79,7.13-2.51,11.34-.94-.31-2.69.27-2.66-1.22-1.45-5.1,4.71-8.06,2.81-13.16-.88-3.12-4.92-4.84-4-8.59.66-3.09,4.12-5.25,3.63-8.63H69.63"/><path class="cls-3" d="M73.29,65.86A4,4,0,0,0,74,68.4c1.75,2.84,4.79,6,3,9.66-2,3-5.42,6-3.5,9.89,1.4,2.33,3.55,4.66,3,7.53l-2.28.76c1.52-5.35-5.94-8.5-2.82-13.84,1.93-2.87,5.38-5.56,3.43-9.36-1.17-2.35-3.58-3.75-3.5-6.69l.08-.49h1.89"/><path class="cls-3" d="M77.07,65.86A4.2,4.2,0,0,0,77.63,68c1.65,3,4.61,5.78,3.5,9.51-.31,1.14-1.22,2-1.45,3.19,1.93,1.6,3.76,3.4,6.32,3.5.91-.58.4-3.17,2.28-2L91,83.62a4.49,4.49,0,0,1-1.36,1.9,6.88,6.88,0,0,0-3.35-1.07,2,2,0,0,0-.68,1.44A6.11,6.11,0,0,1,88.12,87a6.42,6.42,0,0,1-1.67,1.83L84.32,88c-.35.51-1.09,1-.83,1.6a4.38,4.38,0,0,1,1.36.84,14,14,0,0,1-3.27,2.36c-1-3.22-4.23-5.48-4-9.2l-.15-.16c-.76.86-.51,2.23-.46,3.35.91,2.33,3.09,4.13,3.42,6.69-.38.66-1.24.79-1.9,1.06.08-4.61-6.92-8.1-2.43-12.77,1.5-2.29,4-4.46,3.12-7.61s-4.15-4.92-4.12-8.32h2"/><path class="cls-3" d="M97.33,65.86a6,6,0,0,1-.23,2.47c-3.47,1-5.76-2.69-9.13-2.13l.38,1.9c3.12.1,5.07,3.09,8.29,3-.45.92.21,3.32-1.82,2.36-2.11-.5-3.63-2.36-5.93-2.36a4.77,4.77,0,0,0-.16,1.83c2.44.38,4.19,2.43,6.62,2.82A4.07,4.07,0,0,1,94.21,78c-2-.49-3.53-2.26-5.63-2.21l-.38,1.75c2,0,3.3,1.82,5.1,2.35,0,.74-.61,1.4-1,2.06-1.6-.48-2.82-1.85-4.64-1.75,0-.69.38-1.47.22-2.2-2,.61-3.42-1.3-4.94-2.44,0-3.74-4-6.19-4.18-9.69H97.33"/><path class="cls-3" d="M30.52,65.86c0-.34,0-.58,0-.58,3.14,1.22,5.9-1,8.59-2.2.68-.2,1.75.15,2-.61,0-.58,1-1.27.16-1.67-3.93-.54-6.54,4.21-10.57,2.05l-.31-.61c.84-11.46,7.3-22.53,18-28,9.59-5.48,24.29-5,33.32,1.36a33.1,33.1,0,0,1,15.66,27c-4.16,3.15-6.94-3-11.18-1.59a5.4,5.4,0,0,0,.84,1.9c3.75,0,6.34,3.9,10.27,2.35v.58H78.77a5.18,5.18,0,0,1,.38-2.25A12,12,0,0,0,78.62,54a5.59,5.59,0,0,0-1.9-1.75c1,2.21,2.3,4.82,1.67,7.53-.07,2.1-1.31,4.11-1.32,6.13h-2v-.27c.73-3.55,3-7.33,1.14-11.11a6.44,6.44,0,0,0-3.19-3.87A10.86,10.86,0,0,1,75,61.1a13.8,13.8,0,0,0-1.68,4.76H71.4c.78-4.18,4-8.13,1.74-12.59a7.9,7.9,0,0,0-3-3.42l-.08.07a9.24,9.24,0,0,1,2,10c-.65,1.94-2.08,3.88-2.37,6H58.29a5.84,5.84,0,0,0-.2-.88c-1.3-3.65-3.94-7.3-2.36-11.56a14.51,14.51,0,0,1,2.05-3.34,7.69,7.69,0,0,0-3.73,7.07c-.11,3.14,2.22,5.83,2.55,8.71H54.69c-.15-3-2.83-5.3-2.38-8.64a10.55,10.55,0,0,1,2.58-6.46c-2.21.88-3.12,3.42-3.73,5.55-1,3.42,1.47,6.49,1.72,9.55H50.83a4.85,4.85,0,0,0-.35-2c-1.37-3.53-1.85-8.29.76-11.41-1.42.38-2.26,2.16-2.74,3.5-1.57,3.44.42,6.63.49,9.93H30.52"/><path class="cls-2" d="M65.69,36.46l4.11.23-.08.38-3,2.89,1.59,3.88c2.31-1.34,4.52-3,7.31-3.2-.26,1.47-1.37,3-1.22,4.49,1.72-.48,3.3-1.55,5.17-1.45-1.17,2.16-2.86,4.32-3,7A41.25,41.25,0,0,0,68.5,48.1a28.17,28.17,0,0,0-17,2.74,16.82,16.82,0,0,0-3.2-6.93c.91-.3,2,.21,3,.46a21.66,21.66,0,0,0,2.28.91c.15-1.52-.73-3-1.37-4.41.43-.33,1.12-.08,1.6.08a36.84,36.84,0,0,1,5.63,3,10.29,10.29,0,0,0,1.67-4.11l-3.12-2.81v-.3L62,36.54c.68-1.3,1.14-2.67,1.82-4,.84,1.14,1.12,2.64,1.83,3.88"/><path class="cls-3" d="M67.13,44.75l-.37.38a47,47,0,0,0-5.71.08c-.2-.21-.61-.51-.23-.76l2.89-2.21a17.83,17.83,0,0,1,3.42,2.51"/><path class="cls-2" d="M16.41,45.81a5.35,5.35,0,0,0-2.36,5c.18.3.35.75.76.83,1.27,0,1.7-1.37,2.28-2.2.69-1.52,2-3.17,3.8-3.35a4.33,4.33,0,0,1,3.88,1.52c1.55,1.85,1.27,4.84.54,7A9.81,9.81,0,0,1,22,58.9L19.3,57.22c1.49-1,3.07-2.74,3.27-4.64,0-.68-.15-1.59-1-1.67-1.75.51-1.93,2.61-3.12,3.8A4,4,0,0,1,15,56.16a4.52,4.52,0,0,1-3.27-2c-1.49-2.28-.76-5.63.15-7.38A9.84,9.84,0,0,1,14,44.06a19.62,19.62,0,0,1,2.44,1.75"/><path class="cls-2" d="M115.73,47.79a9.79,9.79,0,0,1,1.14,7.53l-2.81-.15c.38-1.7.66-3.83-.53-5.25a1.29,1.29,0,0,0-1.45-.45c-1.55,1.72.13,4.21-.83,6.16A4.83,4.83,0,0,1,109.12,58a4.61,4.61,0,0,1-4.8-.91c-2.38-2.48-3.5-6.34-2-9.58h3a7.2,7.2,0,0,0-.38,4.56c.26.64.56,1.45,1.3,1.68,2.43.08.78-3.4,1.37-5a4,4,0,0,1,2.12-3,4.7,4.7,0,0,1,6,2.13"/><path class="cls-2" d="M41.12,52.58c2.46-.94,5.81-2.56,8.45-.83-.56.78-1.65,1.22-2.44,1.9a23.6,23.6,0,0,0-3.8,4.41c-3.17-.64-5.7,1.22-8.37,2.28A4,4,0,0,1,31.77,60c2.51-4.13,6.06-7.93,5.17-13.38.28-.49.76-.08,1.07.07a8.24,8.24,0,0,1,3.11,5.93"/><path class="cls-2" d="M91.17,47.18c-1,5.18,2.56,8.83,4.94,12.78-2.74,1.83-5.32-1-7.91-1.67a12,12,0,0,0-3.57-.15,17.66,17.66,0,0,0-6.24-6.09c.15-.83,1.32-.89,2.13-1,2.26-.22,4.23.71,6.08,1.68a21.87,21.87,0,0,0,.76-2.66,6.72,6.72,0,0,1,3.35-3.66.6.6,0,0,1,.46.76"/><path class="cls-2" d="M70,51.9c.08.43.51.81.23,1.29a7.21,7.21,0,0,0-4.64.38c-1.29,1-1.09,3-.76,4.34l.38.3c.64-.15.66-1,1.22-1.14.94.23,2.23.56,3.12,0,.78,0,.76,1.12.83,1.67-.55,2.95-1.8,6.14-4.79,7.53-1.24.61-2.84.2-4-.23a8.93,8.93,0,0,1-4.26-8.36c.23-.48.59-.86,1.15-.53,1.18.81,2.48-.63,3.57.38,1.32-.59.53-2.21.53-3.42-1.06-1.37-2.89-1.17-4.48-1.07-.72-.43,0-1.12.22-1.6C60,49,63.33,49,66.22,49.31c1.47.38,3.09,1,3.8,2.59"/><path class="cls-2" d="M61.2,55.4v.3c-.86-.07-2.25-.94-3,.15-.51.23-.58-.35-.53-.68a.6.6,0,0,1,.46-.76,2.92,2.92,0,0,1,3.11,1"/><path class="cls-2" d="M70.25,55c0,.3,0,.66-.3.83-1-.37-2.31-.91-3.27-.15-.56-1.19,1-.94,1.52-1.29.78,0,1.7,0,2,.61"/><path class="cls-3" d="M65.38,59.89c-.45,1-1.92.35-2.73.53-.28-.11-.11-.41-.16-.61a2.42,2.42,0,0,1,2.89.08"/><path class="cls-3" d="M66.6,62c-.61.91-1.52,2-2.74,2-1.37.1-1.67-1-2.66-1.67l-.07-.46c1.82.28,3.82-.07,5.47.16"/><path class="cls-2" d="M19.22,73.88c1.54,0,3,.05,4.6,0l-3.53,3c.34,1.25.63,2.67,1.06,4.34l-3.5-2.43c-1.47.67-2.36,1.49-3.88,2.28l1.22-4.19C14,75.9,12.75,75,11.65,74c1.6,0,3,0,4.53,0,.71-1.33,1-2.85,1.67-4.18l1.37,4"/><path class="cls-2" d="M37.24,93.88a9.26,9.26,0,0,1,.94,2.42,29.58,29.58,0,0,1-2.76,1.38A4.79,4.79,0,0,0,32.07,94a3.94,3.94,0,0,0-3.87,1.52,4.35,4.35,0,0,0-.84,3.65,4.83,4.83,0,0,0,4.33,3l.54,0a20.52,20.52,0,0,1-1.37,2.74,8.07,8.07,0,0,1-7.3-4.87,8,8,0,0,1,1-7.53,7.55,7.55,0,0,1,7.75-2.43,9,9,0,0,1,4.94,3.8"/><path class="cls-2" d="M96.34,92.29l.19.18L92,96.72l1.52,1.84c1.29-1,2.68-2.1,4.07-3.39a17,17,0,0,1,2,2.08c-1.37,1.31-2.79,2.2-4,3.44a19.51,19.51,0,0,0,1.67,2.11l4.92-4,2.1,2.17a95.89,95.89,0,0,1-8.72,7.49L86.91,97.3c2.74-2.28,5-4.36,7.45-6.77a17.73,17.73,0,0,1,2,1.76"/><path class="cls-2" d="M48,101.64a7.56,7.56,0,0,1,.61,7.3,7.83,7.83,0,0,1-5.4,4.26,8.46,8.46,0,0,1-7.3-2.36,7.53,7.53,0,0,1-1.83-7.38,7.85,7.85,0,0,1,6.54-5.4A8.25,8.25,0,0,1,48,101.64"/><path class="cls-1" d="M44.78,103.46c.86,2-.13,4-1.53,5.4a3.29,3.29,0,0,1-3.21.73,3.4,3.4,0,0,1-1.84-1.79A5.46,5.46,0,0,1,40,102.47a3.08,3.08,0,0,1,3.2-.6,2.76,2.76,0,0,1,1.6,1.59"/><path class="cls-2" d="M75.05,106.68c-2.14.31-4.17.56-6.21.89.21,1,.12,1.67.27,2.43a45.4,45.4,0,0,0,5.34-.6l.52,3.25c-1.74.32-3.63.61-5.45.79,0,1.47.24,3.27.22,4.89a21.92,21.92,0,0,1-4.66.29l-.91-13.86v-.3c3.43-.33,6.92-.77,10.2-1.3.14,1,.46,2.24.69,3.52"/><path class="cls-2" d="M86.68,100.45l.12.24-5.57,2.79,1,2.19A47.47,47.47,0,0,0,87,103.56a16.42,16.42,0,0,1,1.29,2.55c-1.53.81-3.11,1.45-4.78,2.18.31.75.47,1.3,1,2.5l5.86-2.51L91.82,111a93.48,93.48,0,0,1-10.47,4.74l-5.13-13.07c3.26-1.42,6.06-2.77,9-4.4a16.67,16.67,0,0,1,1.41,2.23"/><path class="cls-2" d="M62.08,108.26c-2.12-.36-4.15-.74-6.18-1-.11,1-.4,1.63-.48,2.4a49.91,49.91,0,0,0,5.26,1l-.49,3.26c-1.75-.23-3.64-.53-5.43-.92-.4,1.42-.76,3.19-1.28,4.73A21.87,21.87,0,0,1,49,116.6l3.34-13.48.08-.28c3.37.72,6.83,1.36,10.12,1.85-.19,1-.25,2.28-.42,3.57"/><path class="cls-2" d="M111.37,73.9c1.53,0,2.9,0,4.59,0l-3.53,3c.34,1.24.64,2.67,1.06,4.33L110,78.77c-1.48.67-2.36,1.49-3.88,2.28l1.22-4.18c-1.16-1-2.45-1.85-3.54-2.81,1.59,0,3,0,4.52,0,.62-1.38,1.07-2.71,1.68-4.18l1.37,4"/><path class="cls-4" d="M127.47,64.73c0,35.74-28.55,64.74-63.73,64.74S0,100.47,0,64.73,28.56,0,63.74,0,127.47,29,127.47,64.73Z"/><path class="cls-3" d="M105.15,116.66a3.65,3.65,0,1,1-3.7,3.63A3.63,3.63,0,0,1,105.15,116.66Zm0,.59a3.06,3.06,0,1,0,3,3A3,3,0,0,0,105.15,117.25Zm-.77,5.16h-.65V118.2h1.61c1,0,1.49.38,1.49,1.2a1.09,1.09,0,0,1-1.1,1.16l1.2,1.85h-.71l-1.12-1.83h-.72Zm0-2.36h.76c.79,0,1-.23,1-.69s-.19-.63-.93-.63h-.87Z"/></g></g></svg>